<svg xmlns="http://www.w3.org/2000/svg" width="860" height="520" viewBox="0 0 860 520">
<rect width="100%" height="100%" fill="#ffffff"/>
<text x="430.0" y="36" text-anchor="middle" font-size="24" font-family="Segoe UI" fill="#172033">Conversion Rate by Channel</text>
<text x="20" y="245.0" transform="rotate(-90 20 245.0)" text-anchor="middle" font-size="14" font-family="Segoe UI" fill="#5f6c87">Conversion Rate (%)</text>
<line x1="70" y1="420" x2="830" y2="420" stroke="#333" stroke-width="1"/>
<line x1="70" y1="70" x2="70" y2="420" stroke="#333" stroke-width="1"/>
<rect x="70.0" y="80.0" width="139.2" height="340.0" fill="#4f6ef7" rx="4"/>
<text x="139.6" y="442" text-anchor="middle" font-size="12" font-family="Segoe UI" fill="#172033" transform="rotate(15 139.6 442)">Email</text>
<text x="139.6" y="74.0" text-anchor="middle" font-size="12" font-family="Segoe UI" fill="#172033">16.30</text>
<rect x="225.2" y="155.9" width="139.2" height="264.1" fill="#4f6ef7" rx="4"/>
<text x="294.8" y="442" text-anchor="middle" font-size="12" font-family="Segoe UI" fill="#172033" transform="rotate(15 294.8 442)">LinkedIn</text>
<text x="294.8" y="149.9" text-anchor="middle" font-size="12" font-family="Segoe UI" fill="#172033">12.66</text>
<rect x="380.4" y="224.9" width="139.2" height="195.1" fill="#4f6ef7" rx="4"/>
<text x="450.0" y="442" text-anchor="middle" font-size="12" font-family="Segoe UI" fill="#172033" transform="rotate(15 450.0 442)">Google Search</text>
<text x="450.0" y="218.9" text-anchor="middle" font-size="12" font-family="Segoe UI" fill="#172033">9.35</text>
<rect x="535.6" y="299.1" width="139.2" height="120.9" fill="#4f6ef7" rx="4"/>
<text x="605.2" y="442" text-anchor="middle" font-size="12" font-family="Segoe UI" fill="#172033" transform="rotate(15 605.2 442)">Meta Ads</text>
<text x="605.2" y="293.1" text-anchor="middle" font-size="12" font-family="Segoe UI" fill="#172033">5.79</text>
<rect x="690.8" y="370.2" width="139.2" height="49.8" fill="#4f6ef7" rx="4"/>
<text x="760.4" y="442" text-anchor="middle" font-size="12" font-family="Segoe UI" fill="#172033" transform="rotate(15 760.4 442)">TikTok</text>
<text x="760.4" y="364.2" text-anchor="middle" font-size="12" font-family="Segoe UI" fill="#172033">2.39</text>
</svg>