<svg xmlns="http://www.w3.org/2000/svg" width="900" height="520" viewBox="0 0 900 520">
<rect width="100%" height="100%" fill="#ffffff"/>
<text x="450.0" y="36" text-anchor="middle" font-size="24" font-family="Segoe UI" fill="#172033">Daily Spend vs Revenue</text>
<line x1="70" y1="430" x2="860" y2="430" stroke="#333" stroke-width="1"/>
<line x1="70" y1="70" x2="70" y2="430" stroke="#333" stroke-width="1"/>
<polyline fill="none" stroke="#e76f51" stroke-width="3" points="70.0,367.5 333.3,373.9 596.7,382.7 860.0,394.4"/>
<polyline fill="none" stroke="#2a9d8f" stroke-width="3" points="70.0,178.7 333.3,217.9 596.7,80.0 860.0,141.9"/>
<rect x="690" y="82" width="14" height="14" fill="#e76f51"/><text x="710" y="94" font-size="12" font-family="Segoe UI" fill="#172033">Spend</text>
<rect x="770" y="82" width="14" height="14" fill="#2a9d8f"/><text x="790" y="94" font-size="12" font-family="Segoe UI" fill="#172033">Revenue</text>
<text x="70.0" y="452" text-anchor="middle" font-size="12" font-family="Segoe UI" fill="#172033">2026-01-05</text>
<text x="333.3" y="452" text-anchor="middle" font-size="12" font-family="Segoe UI" fill="#172033">2026-01-06</text>
<text x="596.7" y="452" text-anchor="middle" font-size="12" font-family="Segoe UI" fill="#172033">2026-01-07</text>
<text x="860.0" y="452" text-anchor="middle" font-size="12" font-family="Segoe UI" fill="#172033">2026-01-08</text>
<circle cx="70.0" cy="367.5" r="4" fill="#e76f51"/>
<circle cx="333.3" cy="373.9" r="4" fill="#e76f51"/>
<circle cx="596.7" cy="382.7" r="4" fill="#e76f51"/>
<circle cx="860.0" cy="394.4" r="4" fill="#e76f51"/>
<circle cx="70.0" cy="178.7" r="4" fill="#2a9d8f"/>
<circle cx="333.3" cy="217.9" r="4" fill="#2a9d8f"/>
<circle cx="596.7" cy="80.0" r="4" fill="#2a9d8f"/>
<circle cx="860.0" cy="141.9" r="4" fill="#2a9d8f"/>
</svg>