<svg xmlns="http://www.w3.org/2000/svg" width="860" height="520" viewBox="0 0 860 520">
<rect width="100%" height="100%" fill="#ffffff"/>
<text x="430.0" y="36" text-anchor="middle" font-size="24" font-family="Segoe UI" fill="#172033">ROAS by Campaign Type</text>
<text x="20" y="245.0" transform="rotate(-90 20 245.0)" text-anchor="middle" font-size="14" font-family="Segoe UI" fill="#5f6c87">ROAS</text>
<line x1="70" y1="420" x2="830" y2="420" stroke="#333" stroke-width="1"/>
<line x1="70" y1="70" x2="70" y2="420" stroke="#333" stroke-width="1"/>
<rect x="70.0" y="80.0" width="178.0" height="340.0" fill="#7c4dff" rx="4"/>
<text x="159.0" y="442" text-anchor="middle" font-size="12" font-family="Segoe UI" fill="#172033" transform="rotate(15 159.0 442)">Retention</text>
<text x="159.0" y="74.0" text-anchor="middle" font-size="12" font-family="Segoe UI" fill="#172033">15.29</text>
<rect x="264.0" y="255.5" width="178.0" height="164.5" fill="#7c4dff" rx="4"/>
<text x="353.0" y="442" text-anchor="middle" font-size="12" font-family="Segoe UI" fill="#172033" transform="rotate(15 353.0 442)">Retargeting</text>
<text x="353.0" y="249.5" text-anchor="middle" font-size="12" font-family="Segoe UI" fill="#172033">7.40</text>
<rect x="458.0" y="293.4" width="178.0" height="126.6" fill="#7c4dff" rx="4"/>
<text x="547.0" y="442" text-anchor="middle" font-size="12" font-family="Segoe UI" fill="#172033" transform="rotate(15 547.0 442)">Lead Gen</text>
<text x="547.0" y="287.4" text-anchor="middle" font-size="12" font-family="Segoe UI" fill="#172033">5.69</text>
<rect x="652.0" y="371.5" width="178.0" height="48.5" fill="#7c4dff" rx="4"/>
<text x="741.0" y="442" text-anchor="middle" font-size="12" font-family="Segoe UI" fill="#172033" transform="rotate(15 741.0 442)">Awareness</text>
<text x="741.0" y="365.5" text-anchor="middle" font-size="12" font-family="Segoe UI" fill="#172033">2.18</text>
</svg>